<svg width="111" height="54" viewBox="0 0 111 54" fill="none" xmlns="http://www.w3.org/2000/svg">
<path d="M19.1421 15.3212C18.8724 17.4033 17.8674 19.2915 16.476 20.6638C15.0845 22.0352 13.3048 22.8748 11.4719 22.8915H11.4581H11.4444C7.77844 22.8748 5.23088 19.4863 5.78402 15.3212C6.05201 13.2391 7.04321 11.3509 8.43468 9.97864C9.82614 8.60719 11.6058 7.76837 13.4371 7.75172H13.4525H13.4663C13.6106 7.75172 13.7532 7.75172 13.8975 7.76837L13.3821 11.7379C13.2378 11.7062 13.0935 11.6904 12.9372 11.6904C11.1764 11.7062 9.53411 13.3207 9.26268 15.3212C9.005 17.3068 10.2264 18.937 11.9872 18.937C13.2086 18.937 14.3596 18.1456 15.045 17.003H12.6915L13.121 13.7467H19.1953L19.2108 14.2718C19.2211 14.6105 19.1885 14.9667 19.1421 15.3212ZM26.6801 22.338L29.6365 0H4.42691L0 33.5059H6.32171L5.41813 40.4172H11.7725L4.77907 45.3062L3.64012 54H28.8497L33 22.338H26.6801Z" fill="#FFF700"/>
<path d="M44.494 15V2.4H46.906L52.27 11.292H50.992L56.266 2.4H58.66L58.696 15H55.96L55.942 6.594H56.446L52.234 13.668H50.92L46.618 6.594H47.23V15H44.494ZM60.0294 15L65.6454 2.4H68.5254L74.1594 15H71.0994L66.4914 3.876H67.6434L63.0174 15H60.0294ZM62.8374 12.3L63.6114 10.086H70.0914L70.8834 12.3H62.8374ZM75.4667 15V2.4H81.1907C82.5587 2.4 83.7647 2.664 84.8087 3.192C85.8527 3.708 86.6687 4.434 87.2567 5.37C87.8447 6.306 88.1387 7.416 88.1387 8.7C88.1387 9.972 87.8447 11.082 87.2567 12.03C86.6687 12.966 85.8527 13.698 84.8087 14.226C83.7647 14.742 82.5587 15 81.1907 15H75.4667ZM78.3827 12.606H81.0467C81.8867 12.606 82.6127 12.45 83.2247 12.138C83.8487 11.814 84.3287 11.358 84.6647 10.77C85.0127 10.182 85.1867 9.492 85.1867 8.7C85.1867 7.896 85.0127 7.206 84.6647 6.63C84.3287 6.042 83.8487 5.592 83.2247 5.28C82.6127 4.956 81.8867 4.794 81.0467 4.794H78.3827V12.606ZM93.0198 7.476H99.0858V9.744H93.0198V7.476ZM93.2358 12.66H100.094V15H90.3378V2.4H99.8598V4.74H93.2358V12.66ZM44.494 33V20.4H50.65C52.234 20.4 53.422 20.7 54.214 21.3C55.018 21.9 55.42 22.692 55.42 23.676C55.42 24.336 55.258 24.912 54.934 25.404C54.61 25.884 54.166 26.256 53.602 26.52C53.038 26.784 52.39 26.916 51.658 26.916L52 26.178C52.792 26.178 53.494 26.31 54.106 26.574C54.718 26.826 55.192 27.204 55.528 27.708C55.876 28.212 56.05 28.83 56.05 29.562C56.05 30.642 55.624 31.488 54.772 32.1C53.92 32.7 52.666 33 51.01 33H44.494ZM47.392 30.804H50.794C51.55 30.804 52.12 30.684 52.504 30.444C52.9 30.192 53.098 29.796 53.098 29.256C53.098 28.728 52.9 28.338 52.504 28.086C52.12 27.822 51.55 27.69 50.794 27.69H47.176V25.566H50.29C50.998 25.566 51.538 25.446 51.91 25.206C52.294 24.954 52.486 24.576 52.486 24.072C52.486 23.58 52.294 23.214 51.91 22.974C51.538 22.722 50.998 22.596 50.29 22.596H47.392V30.804ZM61.126 33V27.852L61.792 29.616L56.248 20.4H59.344L63.592 27.474H61.81L66.076 20.4H68.938L63.394 29.616L64.042 27.852V33H61.126ZM50.578 51.216C49.582 51.216 48.664 51.06 47.824 50.748C46.996 50.424 46.27 49.968 45.646 49.38C45.034 48.792 44.554 48.102 44.206 47.31C43.87 46.518 43.702 45.648 43.702 44.7C43.702 43.752 43.87 42.882 44.206 42.09C44.554 41.298 45.04 40.608 45.664 40.02C46.288 39.432 47.02 38.982 47.86 38.67C48.7 38.346 49.624 38.184 50.632 38.184C51.748 38.184 52.75 38.37 53.638 38.742C54.538 39.114 55.294 39.654 55.906 40.362L54.034 42.09C53.578 41.61 53.08 41.256 52.54 41.028C52 40.788 51.412 40.668 50.776 40.668C50.164 40.668 49.606 40.764 49.102 40.956C48.598 41.148 48.16 41.424 47.788 41.784C47.428 42.144 47.146 42.57 46.942 43.062C46.75 43.554 46.654 44.1 46.654 44.7C46.654 45.288 46.75 45.828 46.942 46.32C47.146 46.812 47.428 47.244 47.788 47.616C48.16 47.976 48.592 48.252 49.084 48.444C49.588 48.636 50.14 48.732 50.74 48.732C51.316 48.732 51.874 48.642 52.414 48.462C52.966 48.27 53.5 47.952 54.016 47.508L55.672 49.614C54.988 50.13 54.19 50.526 53.278 50.802C52.378 51.078 51.478 51.216 50.578 51.216ZM53.008 49.236V44.502H55.672V49.614L53.008 49.236ZM61.0627 43.476H67.1287V45.744H61.0627V43.476ZM61.2787 48.66H68.1367V51H58.3807V38.4H67.9027V40.74H61.2787V48.66ZM73.1389 43.476H79.2049V45.744H73.1389V43.476ZM73.3549 48.66H80.2129V51H70.4569V38.4H79.9789V40.74H73.3549V48.66ZM85.1431 48.12L84.9811 44.754L91.0111 38.4H94.2511L88.8151 44.25L87.1951 45.978L85.1431 48.12ZM82.5331 51V38.4H85.4311V51H82.5331ZM91.1551 51L86.6731 45.51L88.5811 43.44L94.5571 51H91.1551ZM99.7336 51.216C98.7256 51.216 97.7596 51.084 96.8356 50.82C95.9116 50.544 95.1676 50.19 94.6036 49.758L95.5936 47.562C96.1336 47.946 96.7696 48.264 97.5016 48.516C98.2456 48.756 98.9956 48.876 99.7516 48.876C100.328 48.876 100.79 48.822 101.138 48.714C101.498 48.594 101.762 48.432 101.93 48.228C102.098 48.024 102.182 47.79 102.182 47.526C102.182 47.19 102.05 46.926 101.786 46.734C101.522 46.53 101.174 46.368 100.742 46.248C100.31 46.116 99.8296 45.996 99.3016 45.888C98.7856 45.768 98.2636 45.624 97.7356 45.456C97.2196 45.288 96.7456 45.072 96.3136 44.808C95.8816 44.544 95.5276 44.196 95.2516 43.764C94.9876 43.332 94.8556 42.78 94.8556 42.108C94.8556 41.388 95.0476 40.734 95.4316 40.146C95.8276 39.546 96.4156 39.072 97.1956 38.724C97.9876 38.364 98.9776 38.184 100.166 38.184C100.958 38.184 101.738 38.28 102.506 38.472C103.274 38.652 103.952 38.928 104.54 39.3L103.64 41.514C103.052 41.178 102.464 40.932 101.876 40.776C101.288 40.608 100.712 40.524 100.148 40.524C99.5836 40.524 99.1216 40.59 98.7616 40.722C98.4016 40.854 98.1436 41.028 97.9876 41.244C97.8316 41.448 97.7536 41.688 97.7536 41.964C97.7536 42.288 97.8856 42.552 98.1496 42.756C98.4136 42.948 98.7616 43.104 99.1936 43.224C99.6256 43.344 100.1 43.464 100.616 43.584C101.144 43.704 101.666 43.842 102.182 43.998C102.71 44.154 103.19 44.364 103.622 44.628C104.054 44.892 104.402 45.24 104.666 45.672C104.942 46.104 105.08 46.65 105.08 47.31C105.08 48.018 104.882 48.666 104.486 49.254C104.09 49.842 103.496 50.316 102.704 50.676C101.924 51.036 100.934 51.216 99.7336 51.216Z" fill="white"/>
</svg>
